<svg xmlns="http://www.w3.org/2000/svg" viewBox="0 0 227.31 97.54"><defs><style>.cls-1,.cls-4{fill:#58595b;}.cls-1,.cls-2,.cls-3{fill-rule:evenodd;}.cls-2{fill:#fff;}.cls-3,.cls-5{fill:#f8b609;}</style></defs><title>Asset 2</title><g id="Layer_2" data-name="Layer 2"><g id="Layer_1-2" data-name="Layer 1"><g id="_Group_" data-name="&lt;Group&gt;"><path id="_Compound_Path_" data-name="&lt;Compound Path&gt;" class="cls-1" d="M27.89,67.63A124.29,124.29,0,0,0,52.55,62.4c3.63-1.28,7.27-2.35,10.83-3.81a7.24,7.24,0,0,1,4.14-.42A24.41,24.41,0,0,0,73,59.23c3.17.07,5.81,0,8.71-1.29a15.7,15.7,0,0,0,2.78-1.55C82.11,61.8,79.38,67,77.27,70.7c-20.16,35.79-27.53,35.79-47.69,0-.53-.94-1.1-2-1.69-3.07Zm60-20.27a.72.72,0,0,0-.29,0l-8,.88-1-.48-5.66-5.88-.16-1.05,3.8-8.33,1-.68,11.69-.22a45.52,45.52,0,0,1,.43,6A34.25,34.25,0,0,1,87.88,47.36Z"/><path id="_Path_" data-name="&lt;Path&gt;" class="cls-2" d="M39.72,80.76a72,72,0,0,0,5.67,7.76c1.8,2.09,5,5.48,8,5.48s6.24-3.39,8-5.48a73.64,73.64,0,0,0,5.83-8c2.43-3.77,4.7-7.66,6.9-11.56.57-1,1.14-2,1.7-3.09C73.7,69,71.44,72,69.05,75a76.15,76.15,0,0,1-7.2,8c-2.22,2.1-6.18,5.48-9.93,5.48S44.22,85.13,42,83C41.21,82.3,40.46,81.54,39.72,80.76Z"/><path id="_Path_2" data-name="&lt;Path&gt;" class="cls-3" d="M72.17,5.05a37.31,37.31,0,0,0-37.49,0C23,12,17.28,24.25,17.22,37.56c0,3.86,1.22,8.63,3,13.49C13.66,52.27,5.3,53.2,4,48.24,2.15,41.51,9.61,35.49,15.67,32.13,8.46,35.22-.45,41.59,1.36,49.45c1.56,6.79,13.19,6,20.39,4.64V54c8.8-1.83,18.32-5.52,26.25-8.76a53.57,53.57,0,0,0,8.23-4,6.66,6.66,0,0,0,3-3.35c1.22-2.64,1.59-5.8,3.1-8.16a16.4,16.4,0,0,1,10.28-7.07A18.79,18.79,0,0,1,86.38,24.8a11,11,0,0,1,1.71,1.35A35,35,0,0,0,72.17,5.05Z"/><path id="_Path_3" data-name="&lt;Path&gt;" class="cls-2" d="M59.82,11.59A23.9,23.9,0,0,1,67,15l2.29-2.68a26.66,26.66,0,0,1,3.57,3L70.52,18q.58.6,1.11,1.23A20,20,0,0,0,62,24.59,13.48,13.48,0,0,0,42.88,43.48c-3.35,1.33-6.81,2.66-10.31,3.85A24.19,24.19,0,0,1,31.33,45L28,46.22a28.3,28.3,0,0,1-1.57-4.42l3.33-1.19a24,24,0,0,1-.63-7.87l-3.47-.64c.07-.77.18-1.55.32-2.32s.32-1.54.53-2.29l3.47.64A23.74,23.74,0,0,1,33.37,21L30.68,18.7a27.3,27.3,0,0,1,3-3.57l2.69,2.29a24.4,24.4,0,0,1,6.5-4.48L41.73,9.61A28.3,28.3,0,0,1,46.15,8l1.18,3.33a24.06,24.06,0,0,1,7.88-.63l.64-3.47c.77.07,1.54.18,2.32.32s1.54.32,2.29.52Z"/><path id="_Path_4" data-name="&lt;Path&gt;" class="cls-1" d="M61.34,51.66c2.14-1.34.41-7.33-2.24-6.16-13.59,6-26.45,10.37-39.62,12.25C11.54,58.88,3.79,57,1,52.77,3.71,58.24,11,61.24,20.56,60c13.1-1.67,24.9-5.48,37.87-10.94C60.23,48.32,61.44,50,61.34,51.66Z"/><path id="_Path_5" data-name="&lt;Path&gt;" class="cls-1" d="M28.42,67.59a43.8,43.8,0,0,1-15.25-1.08A35.23,35.23,0,0,1,0,59c3.45,3.82,9.61,8.43,14.14,9.85,6.52,2,14,2.14,19.56,1.87C32.65,70.13,29.46,68.2,28.42,67.59Z"/><path id="_Path_6" data-name="&lt;Path&gt;" class="cls-1" d="M38.53,73.21a43.32,43.32,0,0,1-15.17,1.9A35.19,35.19,0,0,1,9,70.32c4.13,3.09,11.06,6.41,15.78,6.93,6.8.74,14.16-.63,19.55-2C43.17,74.89,39.67,73.61,38.53,73.21Z"/><g id="_Group_2" data-name="&lt;Group&gt;"><path id="_Compound_Path_2" data-name="&lt;Compound Path&gt;" class="cls-4" d="M92.46,88.74a4.56,4.56,0,0,0,.55,0,2.18,2.18,0,0,0,.38-.07L94,86h1.33l-.85,3.52a4.58,4.58,0,0,1-.86.24,7.13,7.13,0,0,1-1.39.12A3.43,3.43,0,0,1,91,89.68a2.32,2.32,0,0,1-1.44-1.53,3.71,3.71,0,0,1-.19-1.24,5.12,5.12,0,0,1,.3-1.73,4.66,4.66,0,0,1,.86-1.5,4.14,4.14,0,0,1,3.25-1.45,4,4,0,0,1,1.27.18,3.69,3.69,0,0,1,.84.39l-.52,1.06a3.28,3.28,0,0,0-.7-.33,2.85,2.85,0,0,0-1-.15,2.54,2.54,0,0,0-1.25.3,3.17,3.17,0,0,0-.93.78A3.43,3.43,0,0,0,91,85.55a4.13,4.13,0,0,0-.2,1.25C90.76,88.1,91.33,88.74,92.46,88.74Z"/><path id="_Compound_Path_3" data-name="&lt;Compound Path&gt;" class="cls-4" d="M96.06,87.74a4,4,0,0,1,.23-1.38,3.71,3.71,0,0,1,.65-1.17,3.21,3.21,0,0,1,1-.82,2.86,2.86,0,0,1,1.35-.31,1.78,1.78,0,0,1,1.25.41,1.38,1.38,0,0,1,.45,1.06,1.66,1.66,0,0,1-.33,1.08,2.22,2.22,0,0,1-.85.65,4.6,4.6,0,0,1-1.19.32c-.44,0-.89.09-1.34.1a.09.09,0,0,0,0,0v.1c0,.64.4,1,1.22,1a3.72,3.72,0,0,0,1.44-.3l.1,1a4.4,4.4,0,0,1-.72.23,4.24,4.24,0,0,1-1.06.12,2.77,2.77,0,0,1-1-.17,1.88,1.88,0,0,1-.7-.47,1.94,1.94,0,0,1-.4-.68A2.82,2.82,0,0,1,96.06,87.74Zm3.08-2.63a1.38,1.38,0,0,0-.6.13,1.6,1.6,0,0,0-.51.35,2.08,2.08,0,0,0-.39.52,2.41,2.41,0,0,0-.24.65,5.08,5.08,0,0,0,1.85-.31.84.84,0,0,0,.58-.79.55.55,0,0,0-.15-.38A.69.69,0,0,0,99.14,85.11Z"/><path id="_Compound_Path_4" data-name="&lt;Compound Path&gt;" class="cls-4" d="M102.62,84.43c.28-.08.6-.16,1-.24a6.26,6.26,0,0,1,1.19-.11,1.9,1.9,0,0,1,1.43.48,1.78,1.78,0,0,1,.45,1.28,3.83,3.83,0,0,1,0,.47l-.09.51-.7,2.92h-1.28l.65-2.78c0-.15.07-.31.11-.47a4.32,4.32,0,0,0,.06-.47.92.92,0,0,0-.17-.61.87.87,0,0,0-.73-.25,2.59,2.59,0,0,0-.78.1l-1.07,4.48h-1.29Z"/><path id="_Compound_Path_5" data-name="&lt;Compound Path&gt;" class="cls-4" d="M107.56,87.74a4.3,4.3,0,0,1,.23-1.38,3.55,3.55,0,0,1,.66-1.17,3.28,3.28,0,0,1,1-.82,2.9,2.9,0,0,1,1.36-.31,1.79,1.79,0,0,1,1.25.41,1.37,1.37,0,0,1,.44,1.06,1.71,1.71,0,0,1-.32,1.08,2.26,2.26,0,0,1-.86.65,4.53,4.53,0,0,1-1.18.32c-.45,0-.89.09-1.34.1,0,0,0,0,0,0v.1c0,.64.41,1,1.22,1a3.72,3.72,0,0,0,1.44-.3l.11,1a4.4,4.4,0,0,1-.72.23,4.24,4.24,0,0,1-1.06.12,2.83,2.83,0,0,1-1-.17,1.92,1.92,0,0,1-.69-.47,1.94,1.94,0,0,1-.4-.68A2.83,2.83,0,0,1,107.56,87.74Zm3.09-2.63a1.42,1.42,0,0,0-.61.13,1.46,1.46,0,0,0-.5.35,2.08,2.08,0,0,0-.39.52,2.41,2.41,0,0,0-.24.65,5.13,5.13,0,0,0,1.85-.31.85.85,0,0,0,.58-.79.52.52,0,0,0-.16-.38A.66.66,0,0,0,110.65,85.11Z"/><path id="_Compound_Path_6" data-name="&lt;Compound Path&gt;" class="cls-4" d="M117,85.33a3,3,0,0,0-.45-.12,4.8,4.8,0,0,0-.58,0l-.38,0a2,2,0,0,0-.34.07l-1.07,4.47h-1.28l1.27-5.29c.3-.1.62-.18,1-.26a5.6,5.6,0,0,1,1.12-.11l.29,0,.31,0,.29.06a1.14,1.14,0,0,1,.22.07Z"/><path id="_Compound_Path_7" data-name="&lt;Compound Path&gt;" class="cls-4" d="M121.85,87.59a2.65,2.65,0,0,0-.07.38,4.46,4.46,0,0,0,0,.5,4,4,0,0,0,0,.6,4.23,4.23,0,0,0,.17.58l-1.14.17a2.49,2.49,0,0,1-.2-.54,2.8,2.8,0,0,1-.65.42,2.07,2.07,0,0,1-.88.19,2,2,0,0,1-.85-.17,1.54,1.54,0,0,1-.58-.45,1.92,1.92,0,0,1-.33-.69,3.22,3.22,0,0,1-.1-.84,3.77,3.77,0,0,1,.27-1.44,3.56,3.56,0,0,1,.77-1.16,3.78,3.78,0,0,1,1.17-.77,4,4,0,0,1,1.49-.28,4.73,4.73,0,0,1,.83.07,3.39,3.39,0,0,1,.84.26Zm-.7-2.4a2.13,2.13,0,0,0-.46,0,1.9,1.9,0,0,0-.88.21,2.15,2.15,0,0,0-.69.55,2.46,2.46,0,0,0-.45.79,2.64,2.64,0,0,0-.16.93,2.32,2.32,0,0,0,0,.46,1.35,1.35,0,0,0,.14.37.76.76,0,0,0,.28.25.88.88,0,0,0,.43.1,1.19,1.19,0,0,0,.6-.15,1.87,1.87,0,0,0,.48-.38,4,4,0,0,1,0-.52,4.26,4.26,0,0,1,.1-.49Z"/><path id="_Compound_Path_8" data-name="&lt;Compound Path&gt;" class="cls-4" d="M125,89.84a2.6,2.6,0,0,1-.85-.12,1.54,1.54,0,0,1-.55-.32,1.17,1.17,0,0,1-.29-.48,1.89,1.89,0,0,1-.09-.6,3.05,3.05,0,0,1,.08-.72c0-.25.11-.5.17-.74l1.23-5.13,1.33-.21-.66,2.76c-.22.91-.44,1.83-.67,2.76,0,.15-.07.29-.11.44a1.54,1.54,0,0,0-.06.43c0,.12,0,.23,0,.33a.45.45,0,0,0,.08.26.52.52,0,0,0,.24.19,1.08,1.08,0,0,0,.41.09Z"/><path id="_Compound_Path_9" data-name="&lt;Compound Path&gt;" class="cls-4" d="M132.36,82.32a3.13,3.13,0,0,1,2,.55,1.75,1.75,0,0,1,.68,1.44,2.76,2.76,0,0,1-.11.77,2.2,2.2,0,0,1-.35.68,2.6,2.6,0,0,1-.62.56,3.75,3.75,0,0,1-.9.4,6.54,6.54,0,0,1,.29.59c.11.23.22.47.33.74s.22.54.33.83.2.58.29.86h-1.41c-.08-.26-.17-.51-.26-.78s-.19-.51-.29-.75-.2-.48-.3-.69-.21-.41-.31-.58h-1.09L130,89.74h-1.34l1.73-7.24a6.9,6.9,0,0,1,1-.14C131.75,82.33,132.07,82.32,132.36,82.32Zm1.32,2.14a.82.82,0,0,0-.42-.8,2.58,2.58,0,0,0-1.14-.21h-.31a1.87,1.87,0,0,0-.34,0l-.57,2.39h.59a4.06,4.06,0,0,0,.88-.08,1.94,1.94,0,0,0,.69-.25,1.22,1.22,0,0,0,.46-.44A1.21,1.21,0,0,0,133.68,84.46Z"/><path id="_Compound_Path_10" data-name="&lt;Compound Path&gt;" class="cls-4" d="M135.33,87.74a4.3,4.3,0,0,1,.23-1.38,3.55,3.55,0,0,1,.66-1.17,3.28,3.28,0,0,1,1-.82,2.93,2.93,0,0,1,1.36-.31,1.79,1.79,0,0,1,1.25.41,1.37,1.37,0,0,1,.44,1.06,1.71,1.71,0,0,1-.32,1.08,2.26,2.26,0,0,1-.86.65,4.53,4.53,0,0,1-1.18.32c-.45,0-.89.09-1.34.1,0,0,0,0,0,0v.1c0,.64.41,1,1.22,1a3.72,3.72,0,0,0,1.44-.3l.11,1a4.4,4.4,0,0,1-.72.23,4.24,4.24,0,0,1-1.06.12,2.83,2.83,0,0,1-1-.17,1.92,1.92,0,0,1-.69-.47,1.94,1.94,0,0,1-.4-.68A2.83,2.83,0,0,1,135.33,87.74Zm3.09-2.63a1.55,1.55,0,0,0-1.11.48,2.08,2.08,0,0,0-.39.52,2.41,2.41,0,0,0-.24.65,5.13,5.13,0,0,0,1.85-.31.85.85,0,0,0,.58-.79.52.52,0,0,0-.16-.38A.66.66,0,0,0,138.42,85.11Z"/><path id="_Compound_Path_11" data-name="&lt;Compound Path&gt;" class="cls-4" d="M146.09,86.19a4.09,4.09,0,0,1-.24,1.41,3.34,3.34,0,0,1-.7,1.16,3.21,3.21,0,0,1-1.12.79,3.65,3.65,0,0,1-1.52.29h-.3l-.3,0-.47,1.91h-1.28l1.75-7.28a5,5,0,0,1,1-.25,5.64,5.64,0,0,1,1.08-.1,2.54,2.54,0,0,1,1,.16A1.7,1.7,0,0,1,146,85.36,2.49,2.49,0,0,1,146.09,86.19Zm-3.94,2.55a.78.78,0,0,0,.22,0h.23a2,2,0,0,0,1.61-.72,2.34,2.34,0,0,0,.44-.79,2.75,2.75,0,0,0,.16-1,2,2,0,0,0-.05-.44,1.16,1.16,0,0,0-.18-.37.76.76,0,0,0-.33-.25,1.15,1.15,0,0,0-.52-.1,2.73,2.73,0,0,0-.41,0,1.47,1.47,0,0,0-.33.07Z"/><path id="_Compound_Path_12" data-name="&lt;Compound Path&gt;" class="cls-4" d="M151.44,87.59a3,3,0,0,0-.06.38,4.46,4.46,0,0,0,0,.5,3,3,0,0,0,.05.6,2.55,2.55,0,0,0,.17.58l-1.15.17a3.16,3.16,0,0,1-.2-.54,2.43,2.43,0,0,1-.65.42,2.06,2.06,0,0,1-.87.19,2,2,0,0,1-.86-.17,1.5,1.5,0,0,1-.57-.45,1.92,1.92,0,0,1-.33-.69,3.22,3.22,0,0,1-.11-.84,3.59,3.59,0,0,1,.28-1.44,3.41,3.41,0,0,1,.77-1.16,3.56,3.56,0,0,1,1.17-.77,3.94,3.94,0,0,1,1.48-.28,4.65,4.65,0,0,1,.83.07,3.39,3.39,0,0,1,.84.26Zm-.7-2.4a2,2,0,0,0-.45,0,1.87,1.87,0,0,0-.88.21,2.19,2.19,0,0,0-.7.55,2.66,2.66,0,0,0-.45.79,2.88,2.88,0,0,0-.16.93,2.31,2.31,0,0,0,.05.46.92.92,0,0,0,.14.37.81.81,0,0,0,.27.25.91.91,0,0,0,.43.1,1.16,1.16,0,0,0,.6-.15,1.71,1.71,0,0,0,.48-.38c0-.19,0-.36.05-.52s.06-.33.1-.49Z"/><path id="_Compound_Path_13" data-name="&lt;Compound Path&gt;" class="cls-4" d="M153.78,89.74H152.5l1.33-5.54h1.29Zm1-6.38a.8.8,0,0,1-.5-.17.61.61,0,0,1-.21-.51.84.84,0,0,1,.27-.64.87.87,0,0,1,.62-.26.77.77,0,0,1,.5.18.61.61,0,0,1,.22.51.83.83,0,0,1-.28.64A.88.88,0,0,1,154.74,83.36Z"/><path id="_Compound_Path_14" data-name="&lt;Compound Path&gt;" class="cls-4" d="M159.48,85.33a3,3,0,0,0-.45-.12,4.8,4.8,0,0,0-.58,0l-.38,0a2,2,0,0,0-.34.07l-1.07,4.47h-1.28l1.27-5.29c.3-.1.62-.18,1-.26a5.6,5.6,0,0,1,1.12-.11l.29,0,.31,0,.29.06a1.14,1.14,0,0,1,.22.07Z"/><path id="_Compound_Path_15" data-name="&lt;Compound Path&gt;" class="cls-4" d="M164.05,88.76a2.75,2.75,0,0,0,.57-.05,1.43,1.43,0,0,0,.5-.18.94.94,0,0,0,.37-.34,1,1,0,0,0,.14-.55.82.82,0,0,0-.11-.42,1.16,1.16,0,0,0-.28-.31,3.21,3.21,0,0,0-.41-.26l-.48-.26a4.6,4.6,0,0,1-.53-.31,2.79,2.79,0,0,1-.44-.4,1.58,1.58,0,0,1-.3-.52,2.1,2.1,0,0,1-.11-.7,2.18,2.18,0,0,1,.18-.89,2.1,2.1,0,0,1,.55-.71,2.69,2.69,0,0,1,.91-.46,3.87,3.87,0,0,1,1.24-.17,3.22,3.22,0,0,1,.63,0,4.76,4.76,0,0,1,.57.13,2.45,2.45,0,0,1,.46.18,1.52,1.52,0,0,1,.32.18l-.58,1a1.89,1.89,0,0,0-.62-.3,2.73,2.73,0,0,0-.87-.13,2.38,2.38,0,0,0-.55.06,1.58,1.58,0,0,0-.46.18.84.84,0,0,0-.3.32.85.85,0,0,0-.11.46,1,1,0,0,0,.07.4.89.89,0,0,0,.23.28,1.36,1.36,0,0,0,.33.22l.41.23.62.36a2.69,2.69,0,0,1,.52.41,1.93,1.93,0,0,1,.35.54,1.74,1.74,0,0,1,.14.72,2.25,2.25,0,0,1-.23,1,1.94,1.94,0,0,1-.62.74,3,3,0,0,1-1,.44,4.53,4.53,0,0,1-1.2.15,4,4,0,0,1-.8-.07,3.76,3.76,0,0,1-.66-.16,3.31,3.31,0,0,1-.49-.2,2.07,2.07,0,0,1-.32-.19l.59-1,.28.17a2.1,2.1,0,0,0,.4.18,3.17,3.17,0,0,0,.49.13A2.48,2.48,0,0,0,164.05,88.76Z"/><path id="_Compound_Path_16" data-name="&lt;Compound Path&gt;" class="cls-4" d="M168,87.74a4,4,0,0,1,.23-1.38,3.71,3.71,0,0,1,.65-1.17,3.21,3.21,0,0,1,1-.82,2.86,2.86,0,0,1,1.35-.31,1.78,1.78,0,0,1,1.25.41,1.38,1.38,0,0,1,.45,1.06,1.66,1.66,0,0,1-.33,1.08,2.22,2.22,0,0,1-.85.65,4.6,4.6,0,0,1-1.19.32c-.44,0-.89.09-1.34.1a.09.09,0,0,0,0,0v.1c0,.64.41,1,1.22,1a3.72,3.72,0,0,0,1.44-.3l.1,1a4.4,4.4,0,0,1-.72.23,4.24,4.24,0,0,1-1.06.12,2.77,2.77,0,0,1-1-.17,1.88,1.88,0,0,1-.7-.47,1.78,1.78,0,0,1-.39-.68A2.53,2.53,0,0,1,168,87.74ZM171,85.11a1.38,1.38,0,0,0-.6.13,1.6,1.6,0,0,0-.51.35,2.08,2.08,0,0,0-.39.52,2.41,2.41,0,0,0-.24.65,5.08,5.08,0,0,0,1.85-.31.84.84,0,0,0,.58-.79.55.55,0,0,0-.15-.38A.69.69,0,0,0,171,85.11Z"/><path id="_Compound_Path_17" data-name="&lt;Compound Path&gt;" class="cls-4" d="M177.35,85.33a3.45,3.45,0,0,0-.46-.12,4.63,4.63,0,0,0-.57,0,2.66,2.66,0,0,0-.39,0,2.24,2.24,0,0,0-.34.07l-1.06,4.47h-1.28l1.27-5.29a9.42,9.42,0,0,1,1-.26,5.67,5.67,0,0,1,1.12-.11l.29,0,.31,0,.29.06.23.07Z"/><path id="_Compound_Path_18" data-name="&lt;Compound Path&gt;" class="cls-4" d="M178.85,89.74c-.18-.72-.34-1.56-.48-2.51a25.6,25.6,0,0,1-.28-3h1.31c0,.31,0,.64,0,1s0,.73.07,1.09.06.71.1,1,.09.65.14.93c.18-.24.38-.53.59-.87s.42-.69.62-1.06.38-.74.54-1.11.29-.72.39-1h1.34a14.34,14.34,0,0,1-.64,1.5,17,17,0,0,1-.83,1.51c-.3.48-.6,1-.92,1.38s-.61.82-.89,1.15Z"/><path id="_Compound_Path_19" data-name="&lt;Compound Path&gt;" class="cls-4" d="M184.23,89.74H183l1.34-5.54h1.28Zm1-6.38a.8.8,0,0,1-.5-.17.61.61,0,0,1-.21-.51.84.84,0,0,1,.27-.64.87.87,0,0,1,.62-.26.77.77,0,0,1,.5.18.61.61,0,0,1,.22.51.8.8,0,0,1-.28.64A.88.88,0,0,1,185.19,83.36Z"/><path id="_Compound_Path_20" data-name="&lt;Compound Path&gt;" class="cls-4" d="M186.09,87.64a4.14,4.14,0,0,1,.22-1.37,3.53,3.53,0,0,1,.66-1.15,3.17,3.17,0,0,1,2.43-1.06,3.57,3.57,0,0,1,.76.07,2.36,2.36,0,0,1,.65.21l-.45,1-.43-.15a2.26,2.26,0,0,0-.57-.06,1.71,1.71,0,0,0-.82.19,1.88,1.88,0,0,0-.62.5,2.23,2.23,0,0,0-.39.75,3.1,3.1,0,0,0-.14.92,2,2,0,0,0,.06.51,1.14,1.14,0,0,0,.19.4.8.8,0,0,0,.37.27,1.57,1.57,0,0,0,.58.09,2.61,2.61,0,0,0,.69-.09,3.27,3.27,0,0,0,.52-.19l.1,1a4.52,4.52,0,0,1-.64.23,3.68,3.68,0,0,1-.92.11,2.55,2.55,0,0,1-1-.18,1.88,1.88,0,0,1-.71-.47,2.1,2.1,0,0,1-.41-.71A2.86,2.86,0,0,1,186.09,87.64Z"/><path id="_Compound_Path_21" data-name="&lt;Compound Path&gt;" class="cls-4" d="M190.83,87.74a4.3,4.3,0,0,1,.23-1.38,3.55,3.55,0,0,1,.66-1.17,3.28,3.28,0,0,1,1-.82,2.9,2.9,0,0,1,1.36-.31,1.81,1.81,0,0,1,1.25.41,1.37,1.37,0,0,1,.44,1.06,1.71,1.71,0,0,1-.32,1.08,2.26,2.26,0,0,1-.86.65,4.53,4.53,0,0,1-1.18.32c-.45,0-.89.09-1.35.1,0,0,0,0,0,0v.1c0,.64.41,1,1.22,1a3.72,3.72,0,0,0,1.44-.3l.11,1a4.4,4.4,0,0,1-.72.23,4.24,4.24,0,0,1-1.06.12,2.83,2.83,0,0,1-1-.17,1.92,1.92,0,0,1-.69-.47,1.94,1.94,0,0,1-.4-.68A2.83,2.83,0,0,1,190.83,87.74Zm3.09-2.63a1.42,1.42,0,0,0-.61.13,1.6,1.6,0,0,0-.51.35,2.33,2.33,0,0,0-.38.52,2.41,2.41,0,0,0-.24.65,5.13,5.13,0,0,0,1.85-.31.85.85,0,0,0,.58-.79.52.52,0,0,0-.16-.38A.66.66,0,0,0,193.92,85.11Z"/><path id="_Compound_Path_22" data-name="&lt;Compound Path&gt;" class="cls-4" d="M197.72,88.84a1.68,1.68,0,0,0,.81-.17.54.54,0,0,0,.29-.5.55.55,0,0,0-.19-.44,3.06,3.06,0,0,0-.66-.39,3.58,3.58,0,0,1-.48-.24,1.35,1.35,0,0,1-.37-.3,1.33,1.33,0,0,1-.26-.39,1.55,1.55,0,0,1-.09-.55,1.59,1.59,0,0,1,.6-1.31,2.72,2.72,0,0,1,1.75-.49,3.93,3.93,0,0,1,.95.11,2.57,2.57,0,0,1,.63.23l-.46,1a2.58,2.58,0,0,0-.52-.2,2.34,2.34,0,0,0-.71-.1,2.07,2.07,0,0,0-.35,0,1,1,0,0,0-.31.11.55.55,0,0,0-.23.2.57.57,0,0,0-.09.32.47.47,0,0,0,.19.4,3.78,3.78,0,0,0,.57.33,4.77,4.77,0,0,1,.6.3,1.67,1.67,0,0,1,.4.34,1.27,1.27,0,0,1,.23.41,1.79,1.79,0,0,1-.08,1.27,1.68,1.68,0,0,1-.46.57,2.3,2.3,0,0,1-.75.38,3.54,3.54,0,0,1-1,.14,3.73,3.73,0,0,1-.7-.06,3.49,3.49,0,0,1-.55-.12,2.17,2.17,0,0,1-.39-.14l-.25-.13.46-1,.22.11a2.85,2.85,0,0,0,.33.13,3.44,3.44,0,0,0,.41.11A2.44,2.44,0,0,0,197.72,88.84Z"/></g><path id="_Path_7" data-name="&lt;Path&gt;" class="cls-4" d="M143.56,37.37H110.13a6,6,0,0,0-5.77,3.83l-12,34.55h12.89l4.18-12.1-3.53-3.2h26.47l2.69-7.78H113.27l.85-2.45-3.94-3.56h5.17v0h25Z"/><polygon id="_Path_8" data-name="&lt;Path&gt;" class="cls-4" points="227.31 25.2 210.55 25.2 197.82 37.58 197.76 37.61 186.61 48.48 182.44 37.61 167.05 37.61 176 56.48 153.77 75.99 169.68 75.99 180.88 65.06 185.26 75.99 200.51 75.99 191.77 56.8 227.31 25.2"/><path id="_Compound_Path_23" data-name="&lt;Compound Path&gt;" class="cls-5" d="M132.56,37.37h14.72l4.83,13.8,14.83-13.8h15.38l-2.75,2.52-36.8,35.86H129.85l12.47-13.44Z"/></g></g></g></svg>